<svg xmlns="http://www.w3.org/2000/svg" width="559pt" height="1196" version="1.0" viewBox="0 0 559 897" style=""><path fill="none" d="M293 1c-34.4 1.6-62.3 8.5-91.5 22.8-23.1 11.4-40.6 24.1-60 43.6-6.1 6-14.5 13.7-18.8 16.9-43.2 32.5-71.5 75.7-80.6 123-10.9 56.4 2.1 111.7 38.4 164.1 25 36 78 87.7 154.7 151.1 45.1 37.3 60 50.5 80.3 70.8 21.5 21.6 27.5 29.3 35 44.8 5.5 11.4 7.5 18.8 8.2 29.8.6 9.6-.6 17.3-3.9 25.7-2.1 5.3-2.7 5.9-7.3 7.6-13.6 5.1-37.4 7.3-52.1 4.6-40.1-7.1-76.3-37.6-108.8-91.6-2.1-3.5-4.3-6.3-5-6.3s-3.2 1.3-5.7 2.9c-7.4 4.8-22.9 14.1-23.3 14.1-.3 0-5.4 3.1-11.3 6.8s-13.5 8.4-16.8 10.2c-3.3 1.9-6.7 3.9-7.7 4.5-.9.5-5.6 3.4-10.5 6.3-4.8 2.9-15.3 9.4-23.3 14.3s-15.2 9.2-16 9.6c-2.6 1.2-14.4 8.6-18 11.4-1.9 1.5-13.7 8.8-26.2 16.4C9.8 712.2 0 718.7 0 719.5s3 7 6.6 13.7c20.7 37.9 39.6 64 64.4 88.7 21.9 21.8 40.1 35 66.5 48 24.7 12.2 48.4 19.6 77.5 24.1 17.2 2.7 62.8 3.8 81.9 1.9 63.6-6.1 116.1-30.2 156.1-71.6 4.7-4.8 12.8-12 18.1-16 40.2-30.4 68.4-72.2 80.4-118.9 6.1-24 7-31.8 7-64 0-25.9-.3-30.4-2.3-41.8-8.4-46.7-26.8-82.3-64.7-125.7-19.2-21.8-40.1-40.9-109.5-99.5-63.7-53.9-103.4-89.4-120.8-108.1-15.2-16.3-22.3-31.1-22.3-46.5 0-4.3.2-8.3.5-8.8 2-3.2 26.6-4.1 39.4-1.5 32.2 6.5 64.9 31.2 97.2 73.1 3.9 5.1 7 8.3 8.2 8.3 1 0 28.3-23.4 61.5-52.8 32.8-29 68.4-60.5 79.2-70s19.7-18.1 19.9-19.1-3.8-6.2-10-13.1c-39.9-44.6-75.4-74-110.6-91.8C392.8 12.2 358.3 2.6 328 1.3c-6.3-.2-13.5-.6-16-.7-2.5-.2-11 0-19 .4zm57 5.8c67.1 12.3 118.8 45 181.3 114.4 5.3 6 9.7 11.2 9.6 11.5-.1 1.2-41.1 36.7-42.3 36.7-.6 0-2 1.3-3.1 2.8-1.1 1.6-16.4 15.6-34 31.2l-32 28.3-1.8-2.4c-23.9-31.1-45.9-52.3-67.5-65.1-9.9-5.9-24.6-11.7-34.4-13.7-11.2-2.3-31.1-2.1-41.6.4-20 4.8-37.3 18.2-45 34.9-3.2 7-3.4 8.2-3.4 17.6 0 17.9 6.4 31.8 22.9 49.4 18.2 19.5 57.3 54.5 121.3 108.6 69.3 58.5 89.7 77.1 108.5 98.5 37.9 43.4 56.3 79 64.7 125.7 2 11.3 2.3 16.1 2.3 39.8 0 30-1 38.4-7 62-9.7 37.9-30.2 72.9-58.6 100-10.5 10-18.5 16.6-19.1 15.9-.9-.8-6.3 2.9-9.2 6.3-4.8 5.7-29.1 19.1-48.2 26.6-20.2 7.9-48.1 14.3-73.5 16.7-18.8 1.8-60.6.8-77.9-1.9-29-4.5-52.8-11.9-77.5-24.1-38.5-19-68-44.4-97.2-83.6-11.8-15.9-34.5-52.7-33.2-53.8 4.6-3.6 76.3-45.6 77.3-45.3 1.6.7 3.6-1.1 3-2.7-.3-.9 13.1-9.9 21.2-14.2 2.8-1.5 20.3-12.2 23.1-14.1 2.1-1.4 2.3-1.3 4.5 2.3 22.5 38.4 51.5 68.7 79.4 82.9 16.4 8.4 30 11.5 50.3 11.5 12.5 0 23.5-1.5 34-4.6 1.7-.5 2.2-.4 1.7.4-1.3 2.2 2.4 1.3 4.7-1.1 1.2-1.3 5.3-4 9.1-6.1 19.3-10.5 35.1-27.9 41.8-46.2 1.8-4.9 2.1-8.2 2.2-19.9.1-16.5-1.1-22.2-7.9-36.3-7.5-15.6-13.5-23.2-35.5-45.3-20.8-20.8-35.5-33.8-80.8-71.3-76.6-63.3-128.8-114.2-153.7-150.1-30.5-44-44.9-90.8-41.5-135.5 2.4-31.8 10.9-59.6 26.2-84.8 7.4-12.3 19.2-27.7 23.1-30.1 1.8-1.1 4.3-3.8 5.6-6.1 2.4-4.2 15.5-16.4 27.7-25.5 29.3-22.1 66-36.7 105-41.9C291.3 3.2 334.7 4 350 6.8zm-235.7 93.8C82.2 149.1 74.5 212.9 94 269.9c7 20.8 17.8 41.7 31.5 61.5 25 36 78 87.7 154.7 151.1 45.1 37.3 60 50.5 80.3 70.8 21.5 21.6 27.5 29.2 35 44.8 6.5 13.6 8 20 7.9 34.3-.1 13.4-1.5 18.6-8 30.2-6 10.8-20.1 24.4-32.6 31.7-5.3 3.1-5.5 2.8-3.1-3.5 1.2-3.3 1.7-7.9 1.7-18.4.1-16.5-1.2-22.2-7.9-36.3-7.5-15.6-13.5-23.2-35.5-45.3-20.8-20.8-35.5-33.8-80.8-71.3-76.6-63.3-128.8-114.2-153.7-150.1-30.5-44-44.9-90.8-41.5-135.5 3.4-45.4 19-81.7 50.4-117.4 5.8-6.6 26.4-25.6 27.7-25.6.4 0-2.3 4.4-5.8 9.7zm209.5 52.9c21.2 4.3 44.5 17.6 65.9 37.8 12.9 12.1 36.8 40.6 36 42.9-.2.6-9.5 9.3-20.8 19.3l-20.4 18.2-1.8-2.4c-10.5-13.7-20.2-25-30.7-35.5-19.1-19.2-35.1-30.4-54-38-14.5-5.8-23.4-7.2-41.5-6.7l-15.3.4 2.4-4.7c2.8-5.7 12.1-15.9 18.1-20 7.1-4.9 15.8-8.8 24-10.8 9.9-2.5 27.4-2.7 38.1-.5zM56.6 702.1c23.3 41.6 51.1 75.7 81.2 99.7 27.5 21.9 61.6 38.5 96.7 47.2 22.5 5.5 36.4 7.1 66.9 7.6 30.7.6 44.5-.3 66.6-4.3 25.5-4.6 47.4-11.9 69.8-23.3l11.7-6-7.5 7.1c-37.7 35.6-88.1 57.2-147.1 62.8-18.8 1.8-60.6.8-77.9-1.9-46.5-7.2-86.8-24.4-122.2-52.1-18-14.1-40.2-38.2-57.5-62.5-13-18.3-34.2-55-32.6-56.6 1.1-1.1 44.6-27.7 45.4-27.8.4-.1 3.3 4.5 6.5 10.1z" class="svg-container zfmXffeD_0"></path><style data-made-with="vivus-instant">.zfmXffeD_0{stroke-dasharray:9721 9723;stroke-dashoffset:9722;animation:zfmXffeD_draw 2000ms linear 0ms forwards;}@keyframes zfmXffeD_draw{100%{stroke-dashoffset:0;}}@keyframes zfmXffeD_fade{0%{stroke-opacity:1;}94.44444444444444%{stroke-opacity:1;}100%{stroke-opacity:0;}}</style></svg>